<svg width="7" height="22" viewBox="0 0 7 22" fill="none" xmlns="http://www.w3.org/2000/svg">
<path d="M4.10764 21.1375C4.28342 21.5945 4.68185 21.8875 5.10373 21.8875C5.79514 21.8875 6.32248 21.3836 6.32248 20.6922C6.32248 20.3406 6.12326 19.8836 6.00607 19.5789L2.80685 11.4344L6.00607 3.28986C6.12326 2.98517 6.32248 2.51642 6.32248 2.17657C6.32248 1.49689 5.79514 0.992981 5.10373 0.992981C4.68185 0.992981 4.28342 1.27423 4.10764 1.73126L0.96701 9.72345C0.756073 10.2625 0.49826 10.9188 0.49826 11.4344C0.49826 11.95 0.756073 12.6063 0.96701 13.1453L4.10764 21.1375Z" fill="#0E0F12"/>
</svg>
