<svg width="18" height="21" viewBox="0 0 18 21" fill="none" xmlns="http://www.w3.org/2000/svg">
<path d="M1.68188 20.407C2.15063 20.407 2.54907 20.2195 3.01782 19.95L16.6819 12.0516C17.6545 11.4774 17.9944 11.1024 17.9944 10.4813C17.9944 9.86017 17.6545 9.48517 16.6819 8.92267L3.01782 1.01251C2.54907 0.742981 2.15063 0.5672 1.68188 0.5672C0.814697 0.5672 0.275635 1.22345 0.275635 2.24298V18.7195C0.275635 19.7391 0.814697 20.407 1.68188 20.407ZM2.27954 18.1688C2.20923 18.1688 2.16235 18.1219 2.16235 18.0281V2.93439C2.16235 2.84064 2.20923 2.79376 2.27954 2.79376C2.32642 2.79376 2.37329 2.8172 2.42017 2.85236L15.3928 10.3524C15.4514 10.3875 15.4983 10.4227 15.4983 10.4813C15.4983 10.5399 15.4514 10.5867 15.3928 10.6102L2.42017 18.1219C2.37329 18.1453 2.32642 18.1688 2.27954 18.1688Z" fill="#7393E6"/>
</svg>
