<svg width="22" height="26" viewBox="0 0 22 26" fill="none" xmlns="http://www.w3.org/2000/svg">
<path d="M11.1033 12.1609C11.6306 12.1609 12.0291 11.7625 12.0291 11.2234C12.0291 10.9774 11.947 10.743 11.7595 10.5555L8.25562 7.07501C8.97046 6.92267 9.77905 6.85236 10.6814 6.85236C15.3806 6.85236 19.1423 10.6141 19.1423 15.3133C19.1423 20.0242 15.3806 23.7977 10.6814 23.7977C5.98218 23.7977 2.20874 20.0242 2.20874 15.3133C2.20874 14.7508 1.85718 14.3406 1.29468 14.3406C0.720459 14.3406 0.322021 14.7508 0.322021 15.3133C0.322021 21.0672 4.93921 25.6844 10.6814 25.6844C16.4236 25.6844 21.0291 21.0672 21.0291 15.3133C21.0291 9.57111 16.4236 4.96564 10.6814 4.96564C9.98999 4.96564 9.3103 5.03595 8.64233 5.15314L11.7712 2.08282C11.947 1.89532 12.0291 1.66095 12.0291 1.41486C12.0291 0.875793 11.6306 0.453918 11.115 0.453918C10.822 0.453918 10.5876 0.547668 10.4236 0.735168L5.59546 5.63361C5.40796 5.82111 5.30249 6.07892 5.30249 6.33673C5.30249 6.60626 5.39624 6.84064 5.59546 7.03986L10.4236 11.8914C10.5994 12.0672 10.822 12.1609 11.1033 12.1609Z" fill="#7393E6"/>
</svg>
