<svg width="7" height="22" viewBox="0 0 7 22" fill="none" xmlns="http://www.w3.org/2000/svg">
<path d="M2.7131 21.1375L5.85373 13.1453C6.06467 12.6063 6.32248 11.95 6.32248 11.4344C6.32248 10.9188 6.06467 10.2625 5.85373 9.72345L2.7131 1.73126C2.53732 1.27423 2.13889 0.992981 1.70529 0.992981C1.01389 0.992981 0.49826 1.49689 0.49826 2.17657C0.49826 2.51642 0.697479 2.98517 0.802948 3.28986L4.00217 11.4344L0.802948 19.5789C0.697479 19.8836 0.49826 20.3406 0.49826 20.6922C0.49826 21.3836 1.01389 21.8875 1.70529 21.8875C2.13889 21.8875 2.53732 21.5945 2.7131 21.1375Z" fill="#0E0F12"/>
</svg>
